{"title":"Maryland.[Disorder].2015.FRENCH.720p.BluRay.x264-Kat","uid":15366107,"size":808345900,"categoryP":"video","categoryS":"hd___movies","magnet":"?xt=urn:btih:8d8c79142f6ddf22f85c694b1f6ba68abe378ce6&amp;dn=Maryland.%5BDisorder%5D.2015.FRENCH.720p.BluRay.x264-Kat&amp;tr=udp%3A%2F%2Ftracker.leechers-paradise.org%3A6969&amp;tr=udp%3A%2F%2Fzer0day.ch%3A1337&amp;tr=udp%3A%2F%2Fopen.demonii.com%3A1337&amp;tr=udp%3A%2F%2Ftracker.coppersurfer.tk%3A6969&amp;tr=udp%3A%2F%2Fexodus.desync.com%3A6969","seeders":23,"leechers":3,"uploader":"Polly_Kat","files":2,"time":1469079502,"description":"Disorder / Maryland (2005)\r\n\r\nPlot:\r\nBack from Afghanistan, Vincent (Matthias Schoenaerts), a victim of post-traumatic stress disorder, is responsible for ensuring the safety of Jessie (Diane Kruger), the wife of a wealthy Lebanese businessman in his &quot;Maryland&quot; property. While he feels a strange fascination for the woman he must protect, Vincent is prone to anxiety and hallucinations. Despite the apparent tranquility on &quot;Maryland&quot;, Vincent perceives an external threat...\r\n\r\nCast:\r\nMatthias Schoenaerts ... Vincent\r\nDiane Kruger ... Jessie \r\nPaul Hamy ... Denis \r\nZaïd Errougui-Demonsant ... Ali \r\nPercy Kemp ... Imad Whalid\r\n\r\nDetails \r\nFrench title: Maryland\r\nEnglish title: Disorder\r\nGenre: Drama | Thriller \r\nRuntime: 98 min\r\nCountry: France | Belgium\r\nLanguage: French\r\nDirector: Alice Winocour\r\nIMDb: http://www.imdb.com/title/tt4085084/\r\n \r\nSubtitles:  \nhttp://www.subtitleseeker.com/4085084/Maryland/Subtitles/\r\n\r\n--------------------------------------------------------------------------------\r\n\r\nMedia Info:\r\nFormat                      : MPEG-4\r\nFormat profile              : Base Media\r\nCodec ID                    : isom\r\nFile size                   : 771 MiB\r\nDuration                    : 1 h 38 min\r\nOverall bit rate            : 1 097 kb/s\r\nWriting application         : Lavf56.40.101\r\n\r\nVideo\r\nID                          : 1\r\nFormat                      : AVC\r\nFormat/Info                 : Advanced Video Codec\r\nFormat profile              :   \r\nFormat settings, CABAC      : Yes\r\nFormat settings, ReFrames   : 4 frames\r\nCodec ID                    : avc1\r\nCodec ID/Info               : Advanced Video Coding\r\nDuration                    : 1 h 38 min\r\nBit rate                    : 900 kb/s\r\nWidth                       : 1 280 pixels\r\nHeight                      : 688 pixels\r\nDisplay aspect ratio        : 1.85:1\r\nFrame rate mode             : Constant\r\nFrame rate                  : 23.976\r\nColor space                 : YUV\r\nChroma subsampling          : 4:2:0\r\nBit depth                   : 8 bits\r\nScan type                   : Progressive\r\nBits/(Pixel*Frame)          : 0.043\r\nStream size                 : 632 MiB (82%)\r\nWriting library             : x264 core 146 r2538 121396c\r\n\r\nAudio\r\nID                          : 2\r\nFormat                      : AC-3\r\nFormat/Info                 : Audio Coding 3\r\nMode extension              : CM (complete main)\r\nFormat settings, Endianness : Big\r\nCodec ID                    : ac-3\r\nDuration                    : 1 h 38 min\r\nBit rate mode               : Constant\r\nBit rate                    : 192 kb/s\r\nChannel(s)                  : 2 channels\r\nChannel positions           : Front: L R\r\nSampling rate               : 44.1 kHz\r\nFrame rate                  : 28.711 FPS (1536 spf)\r\nBit depth                   : 16 bits\r\nCompression mode            : Lossy\r\nStream size                 : 135 MiB (17%)\r\nLanguage                    : French\r\n\r\n--------------------------------------------------------------------------------\r\n\r\nScreenshots: \nhttp://i.imgur.com/o2SvUSa.jpg\r\n \nhttp://i.imgur.com/gmApVKI.jpg\r\n \nhttp://i.imgur.com/oyPV2bm.jpg\r\n \nhttp://i.imgur.com/EzLGJ0g.jpg\r\n \nhttp://i.imgur.com/jha72rh.jpg\r\n \nhttp://i.imgur.com/TPc0MWH.jpg\r\n \nhttp://i.imgur.com/jALMbae.jpg\r\n \nhttp://i.imgur.com/BOSHD8M.jpg","torrent":{"xt":"urn:btih:8d8c79142f6ddf22f85c694b1f6ba68abe378ce6","amp;dn":"Maryland.%5BDisorder%5D.2015.FRENCH.720p.BluRay.x264-Kat","amp;tr":["udp%3A%2F%2Ftracker.leechers-paradise.org%3A6969","udp%3A%2F%2Fzer0day.ch%3A1337","udp%3A%2F%2Fopen.demonii.com%3A1337","udp%3A%2F%2Ftracker.coppersurfer.tk%3A6969","udp%3A%2F%2Fexodus.desync.com%3A6969"],"infoHash":"8d8c79142f6ddf22f85c694b1f6ba68abe378ce6","infoHashBuffer":{"type":"Buffer","data":[141,140,121,20,47,109,223,34,248,92,105,75,31,107,166,138,190,55,140,230]},"announce":[],"urlList":[]}}